<svg width="16" height="19" viewBox="0 0 16 19" fill="none" xmlns="http://www.w3.org/2000/svg">
<path d="M2.60024 7.38767V12.1373C2.60024 12.7689 2.11407 13.2734 1.49532 13.2734C0.880592 13.2734 0.28595 12.7648 0.28595 12.1373V7.38767C0.28595 6.76833 0.880592 6.25974 1.49532 6.25974C2.10202 6.25974 2.60024 6.76833 2.60024 7.38767ZM3.03416 13.8271C3.03416 14.4998 3.56452 15.0412 4.22345 15.0412H5.023L5.03506 17.5472C5.03506 19.0607 7.25291 19.0484 7.25291 17.5472V15.0412H8.74756V17.5472C8.74756 19.0525 10.9775 19.0566 10.9775 17.5472V15.0412H11.7891C12.44 15.0412 12.9703 14.4998 12.9703 13.8271V6.46892H3.03416V13.8271ZM12.9984 6.07107H2.98997C2.98997 4.3156 4.01854 2.78982 5.54532 1.99411L4.77791 0.546263C4.66541 0.345286 4.95068 0.218138 5.04711 0.390404L5.82657 1.85056C7.22881 1.21482 8.83997 1.24763 10.1779 1.85056L10.9534 0.394505C11.0538 0.218138 11.3351 0.349388 11.2226 0.550364L10.4551 1.99411C11.9699 2.78982 12.9984 4.3156 12.9984 6.07107ZM6.13997 3.7947C6.13997 3.56091 5.95515 3.36404 5.71809 3.36404C5.48907 3.36404 5.30827 3.56091 5.30827 3.7947C5.30827 4.02849 5.49309 4.22536 5.71809 4.22536C5.95515 4.22536 6.13997 4.02849 6.13997 3.7947ZM10.6962 3.7947C10.6962 3.56091 10.5114 3.36404 10.2864 3.36404C10.0493 3.36404 9.86452 3.56091 9.86452 3.7947C9.86452 4.02849 10.0493 4.22536 10.2864 4.22536C10.5114 4.22536 10.6962 4.02849 10.6962 3.7947ZM14.5051 6.25974C13.8984 6.25974 13.4002 6.75603 13.4002 7.38767V12.1373C13.4002 12.7689 13.8984 13.2734 14.5051 13.2734C15.1239 13.2734 15.7145 12.7648 15.7145 12.1373V7.38767C15.7145 6.75603 15.1199 6.25974 14.5051 6.25974Z" fill="#636D85"/>
</svg>
