<svg width="18" height="14" viewBox="0 0 18 14" fill="none" xmlns="http://www.w3.org/2000/svg">
<path d="M8.29186 13.366C8.4794 13.1785 8.58476 12.9241 8.58476 12.6589C8.58476 12.3937 8.4794 12.1394 8.29186 11.9518L4.33914 7.99909L16.07 8.00617C16.3363 8.00617 16.5917 7.90038 16.78 7.71208C16.9683 7.52377 17.0741 7.26838 17.0741 7.00208C17.0741 6.73577 16.9683 6.48038 16.78 6.29208C16.5917 6.10377 16.3363 5.99798 16.07 5.99798L4.33914 6.00505L8.29186 2.05233C8.4794 1.86479 8.58476 1.61044 8.58476 1.34522C8.58476 1.08 8.4794 0.82565 8.29186 0.638114C8.10433 0.450577 7.84997 0.34522 7.58476 0.34522C7.31954 0.34522 7.06519 0.450577 6.87765 0.638114L1.2208 6.29497C1.03326 6.4825 0.927902 6.73686 0.927902 7.00207C0.927902 7.26729 1.03326 7.52164 1.2208 7.70918L6.87765 13.366C7.06519 13.5536 7.31954 13.6589 7.58476 13.6589C7.84997 13.6589 8.10433 13.5536 8.29186 13.366Z" fill="white"/>
</svg>
