<svg width="18" height="14" viewBox="0 0 18 14" fill="none" xmlns="http://www.w3.org/2000/svg">
<path d="M9.70814 0.633964C9.5206 0.821501 9.41524 1.07586 9.41524 1.34107C9.41524 1.60629 9.5206 1.86064 9.70814 2.04818L13.6609 6.0009L1.92996 5.99383C1.66366 5.99383 1.40827 6.09962 1.21996 6.28792C1.03166 6.47623 0.925872 6.73162 0.925872 6.99792C0.925872 7.26423 1.03166 7.51962 1.21996 7.70792C1.40827 7.89623 1.66366 8.00202 1.92996 8.00202L13.6609 7.99495L9.70814 11.9477C9.5206 12.1352 9.41524 12.3896 9.41524 12.6548C9.41524 12.92 9.5206 13.1743 9.70814 13.3619C9.89567 13.5494 10.15 13.6548 10.4152 13.6548C10.6805 13.6548 10.9348 13.5494 11.1224 13.3619L16.7792 7.70503C16.9667 7.51749 17.0721 7.26314 17.0721 6.99792C17.0721 6.73271 16.9667 6.47835 16.7792 6.29082L11.1224 0.633964C10.9348 0.446428 10.6805 0.341071 10.4152 0.341071C10.15 0.34107 9.89567 0.446428 9.70814 0.633964Z" fill="white"/>
</svg>
