<svg width="16" height="20" viewBox="0 0 16 20" fill="none" xmlns="http://www.w3.org/2000/svg">
<path d="M2.4 7.70692V12.8785C2.4 13.5662 1.89583 14.1156 1.25417 14.1156C0.616667 14.1156 0 13.5618 0 12.8785V7.70692C0 7.03256 0.616667 6.47878 1.25417 6.47878C1.88333 6.47878 2.4 7.03256 2.4 7.70692ZM2.85 14.7185C2.85 15.4509 3.4 16.0404 4.08333 16.0404H4.9125L4.925 18.7691C4.925 20.417 7.225 20.4036 7.225 18.7691V16.0404H8.775V18.7691C8.775 20.4081 11.0875 20.4125 11.0875 18.7691V16.0404H11.9292C12.6042 16.0404 13.1542 15.4509 13.1542 14.7185V6.70655H2.85V14.7185V14.7185ZM13.1833 6.27335H2.80417C2.80417 4.36192 3.87083 2.70059 5.45417 1.8342L4.65833 0.257721C4.54167 0.0388891 4.8375 -0.0995552 4.9375 0.0880146L5.74583 1.67789C7.2 0.98567 8.87083 1.0214 10.2583 1.67789L11.0625 0.0924805C11.1667 -0.0995553 11.4583 0.043355 11.3417 0.262186L10.5458 1.8342C12.1167 2.70059 13.1833 4.36192 13.1833 6.27335V6.27335ZM6.07083 3.79475C6.07083 3.54019 5.87917 3.32583 5.63333 3.32583C5.39583 3.32583 5.20833 3.54019 5.20833 3.79475C5.20833 4.04931 5.4 4.26367 5.63333 4.26367C5.87917 4.26367 6.07083 4.04931 6.07083 3.79475ZM10.7958 3.79475C10.7958 3.54019 10.6042 3.32583 10.3708 3.32583C10.125 3.32583 9.93333 3.54019 9.93333 3.79475C9.93333 4.04931 10.125 4.26367 10.3708 4.26367C10.6042 4.26367 10.7958 4.04931 10.7958 3.79475ZM14.7458 6.47878C14.1167 6.47878 13.6 7.01916 13.6 7.70692V12.8785C13.6 13.5662 14.1167 14.1156 14.7458 14.1156C15.3875 14.1156 16 13.5618 16 12.8785V7.70692C16 7.01916 15.3833 6.47878 14.7458 6.47878Z" fill="#8886FF"/>
</svg>
