<svg width="16" height="20" viewBox="0 0 16 20" fill="none" xmlns="http://www.w3.org/2000/svg">
<path d="M14.4387 13.952C14.6217 14.0277 14.7795 14.1568 14.8928 14.3234C14.9945 14.4797 15.066 14.6686 15.1108 14.8899C15.135 15.02 15.164 15.1401 15.1955 15.2526C15.2549 15.4635 15.3443 15.6642 15.4607 15.8479C15.5177 15.9392 15.5939 16.0393 15.6884 16.1506C15.7695 16.2419 15.8422 16.3594 15.9064 16.502C15.9656 16.6303 15.9974 16.7702 15.9996 16.9122C16.0043 17.0488 15.9647 17.183 15.887 17.2936C15.808 17.4011 15.7117 17.4937 15.6024 17.5675C15.4571 17.6713 15.3057 17.7626 15.1483 17.8414C14.9909 17.919 14.8334 18.0003 14.676 18.0853C14.4406 18.2011 14.2157 18.3384 14.0039 18.4955C13.815 18.6393 13.6249 18.8207 13.436 19.0433C13.2157 19.2981 12.9608 19.5184 12.6791 19.6973C12.5353 19.7916 12.3791 19.864 12.2153 19.9125C12.0579 19.9575 11.9004 19.9875 11.743 20C11.3773 20 11.0745 19.935 10.8348 19.8049C10.595 19.6748 10.3867 19.4372 10.2099 19.092C10.159 18.9932 10.1094 18.932 10.0585 18.9057C9.97999 18.8713 9.89729 18.8482 9.81269 18.8369L8.8548 18.7594C8.53995 18.7344 8.21903 18.7206 7.89086 18.7206C7.6183 18.721 7.34619 18.7436 7.07707 18.7881C6.79976 18.8344 6.52486 18.8894 6.2536 18.9545C6.1979 18.967 6.14098 19.017 6.08406 19.1008C6.0132 19.2025 5.93377 19.2975 5.84671 19.3847C5.72874 19.5007 5.59126 19.5935 5.44103 19.6586C5.22695 19.7449 4.99874 19.7878 4.76893 19.7849C4.56064 19.7849 4.33661 19.7624 4.09683 19.7174C3.87251 19.6771 3.6556 19.6011 3.4538 19.4922C3.08977 19.3 2.70123 19.1619 2.29973 19.082C1.92069 19.0108 1.52106 18.9445 1.09843 18.8869C0.958347 18.8681 0.819302 18.8418 0.681847 18.8082C0.55487 18.7785 0.435267 18.7219 0.33066 18.6418C0.234666 18.5685 0.154633 18.4752 0.0957288 18.3679C0.0311519 18.2313 -0.00160881 18.081 6.07569e-05 17.929C6.07569e-05 17.7264 0.0254915 17.5313 0.0763529 17.3424C0.127214 17.1548 0.155067 16.9547 0.161122 16.7471C0.161122 16.6033 0.151434 16.4632 0.133269 16.3269C0.113242 16.1809 0.100309 16.034 0.0945177 15.8867C0.0945177 15.5553 0.17081 15.3114 0.322183 15.1538C0.473557 14.9975 0.693957 14.8737 0.984594 14.7824C1.11371 14.742 1.23531 14.6795 1.34426 14.5973C1.4442 14.5194 1.53888 14.4346 1.62763 14.3434C1.71773 14.2499 1.79997 14.1487 1.87346 14.0408C1.94975 13.9295 2.03452 13.8182 2.12898 13.7081C2.14782 13.6831 2.15805 13.6523 2.15804 13.6206C2.15804 13.5418 2.15441 13.4667 2.14835 13.3954L2.12898 13.1603C2.12898 12.7176 2.19558 12.2724 2.32758 11.8222C2.46079 11.3719 2.63396 10.9342 2.8483 10.5028C3.06231 10.0738 3.30258 9.65947 3.56763 9.26213C3.83163 8.86568 4.09441 8.49675 4.35235 8.15783C4.70271 7.70485 4.98071 7.19694 5.17582 6.65333C5.35747 6.13307 5.45314 5.56528 5.45919 4.95248C5.45919 4.6936 5.44708 4.43597 5.42165 4.18209C5.39624 3.92238 5.38371 3.66149 5.38411 3.40045C5.38411 2.87894 5.44103 2.40996 5.55365 1.9935C5.66748 1.57579 5.84429 1.21811 6.08406 0.917959C6.32384 0.617809 6.63627 0.393947 7.02016 0.243872C7.40646 0.0937969 7.86664 0.0125063 8.40189 0C9.04008 0 9.54749 0.130065 9.92653 0.391446C10.3044 0.651576 10.595 0.992997 10.796 1.41696C10.9982 1.83967 11.1278 2.31241 11.1835 2.83392C11.2417 3.35418 11.2731 3.88194 11.2792 4.41596V4.58229C11.2792 4.84993 11.2816 5.08754 11.2889 5.29515C11.3002 5.71723 11.3932 6.13269 11.5626 6.51701C11.651 6.71836 11.783 6.93722 11.9598 7.17109C12.2625 7.58254 12.5725 7.9965 12.8874 8.41296C13.2022 8.82942 13.4893 9.25963 13.7472 9.7011C14.0063 10.1451 14.2183 10.6078 14.3817 11.0893C14.5464 11.572 14.6312 12.0923 14.6373 12.6526C14.6389 13.0943 14.5718 13.5334 14.4387 13.9532V13.952ZM6.50185 3.77189C6.58904 3.77189 6.6617 3.7944 6.71983 3.83942C6.77889 3.88851 6.82441 3.95277 6.85183 4.02576C6.88223 4.10088 6.90417 4.17935 6.91722 4.25963C6.92933 4.33842 6.9366 4.41971 6.9366 4.50475C6.93857 4.55847 6.92863 4.61194 6.90753 4.66108C6.88679 4.7026 6.85792 4.73923 6.82276 4.76863L6.70893 4.86618C6.66835 4.90168 6.63068 4.94058 6.59631 4.98249C6.5509 5.05551 6.48897 5.11603 6.41587 5.15883C6.34088 5.20379 6.26813 5.25262 6.1979 5.30515C6.13081 5.35542 6.06765 5.41103 6.00898 5.47149C5.97966 5.50413 5.95703 5.54257 5.94246 5.58448C5.9279 5.62639 5.92169 5.67091 5.92421 5.71536C5.92421 5.77414 5.95206 5.82291 6.00898 5.86168C6.15019 5.95353 6.26219 6.08616 6.3311 6.24312C6.39408 6.3932 6.46431 6.53952 6.53939 6.68334C6.61447 6.82591 6.71256 6.94597 6.83245 7.04477C6.95234 7.14232 7.13883 7.1911 7.38951 7.1911H7.44763C7.69952 7.17859 7.9393 7.10981 8.16696 6.98599C8.39342 6.86218 8.62108 6.73212 8.84754 6.59455C8.88698 6.57164 8.92832 6.55239 8.97106 6.53702C9.01505 6.52081 9.05632 6.49761 9.09337 6.46823L9.78363 5.91171C9.79564 5.86979 9.80534 5.8272 9.81269 5.78414C9.82005 5.73843 9.82651 5.69256 9.83207 5.64657C9.83419 5.5844 9.81724 5.52312 9.78363 5.47149C9.75266 5.42612 9.7146 5.38639 9.67101 5.35393C9.62259 5.31984 9.56768 5.29681 9.50995 5.28639C9.45223 5.27443 9.39553 5.2577 9.34041 5.23637C9.18946 5.20432 9.04517 5.14505 8.91414 5.06128C8.78407 4.97786 8.64403 4.91227 8.49756 4.86618C8.47334 4.85868 8.45397 4.83992 8.44064 4.8074C8.42623 4.76889 8.4137 4.72966 8.4031 4.68985C8.39064 4.64861 8.38733 4.60501 8.39342 4.56228C8.40031 4.52953 8.39692 4.49536 8.38373 4.46473C8.38373 4.38719 8.38978 4.3059 8.4031 4.22086C8.41617 4.13477 8.44494 4.05201 8.48787 3.97699C8.52479 3.90751 8.57656 3.84763 8.63925 3.8019C8.71391 3.7569 8.79863 3.73277 8.88508 3.73187C9.08126 3.73187 9.22294 3.8069 9.31134 3.95698C9.39975 4.10705 9.44697 4.26963 9.45303 4.44472C9.45459 4.52255 9.43841 4.59966 9.4058 4.66984C9.37348 4.7366 9.35688 4.8103 9.35736 4.88494C9.35736 4.93747 9.37432 4.97249 9.4058 4.9925C9.44394 5.01409 9.486 5.02729 9.52932 5.03127C9.67464 5.03127 9.76789 4.99625 9.81269 4.92496C9.86366 4.82567 9.88948 4.71467 9.88777 4.6023C9.88777 4.45223 9.87566 4.28589 9.85144 4.1033C9.82748 3.92665 9.77595 3.75517 9.69886 3.59555C9.62828 3.44564 9.52852 3.31238 9.4058 3.2041C9.2744 3.09628 9.10965 3.0412 8.94199 3.04902C8.61503 3.04902 8.37767 3.13282 8.23235 3.3029C8.08704 3.47174 8.01195 3.72561 8.0059 4.06453C8.0059 4.16208 8.01195 4.25963 8.02406 4.35718C8.03617 4.45598 8.04344 4.55353 8.04344 4.65108C8.04344 4.68359 8.03981 4.69985 8.03375 4.69985C8.0141 4.69544 7.99501 4.68873 7.97684 4.67984C7.93911 4.66404 7.90157 4.64778 7.86421 4.63107C7.81793 4.61088 7.77014 4.59457 7.72132 4.58229C7.64083 4.5621 7.55726 4.5587 7.47549 4.57229C7.42528 4.57886 7.37472 4.5822 7.32411 4.58229C7.23571 4.58229 7.19091 4.56603 7.19091 4.53352C7.19091 4.43597 7.18606 4.31216 7.17274 4.16208C7.16063 4.01201 7.12914 3.86193 7.07828 3.71186C7.036 3.57833 6.97212 3.45317 6.88937 3.34167C6.81308 3.24412 6.70045 3.1916 6.54908 3.18534C6.44739 3.18292 6.34879 3.2215 6.27419 3.2929C6.19646 3.36717 6.12956 3.45268 6.07559 3.54677C6.01756 3.64838 5.98199 3.76198 5.97144 3.87944C5.96128 3.98395 5.94877 4.08819 5.9339 4.1921C5.93876 4.36464 5.9673 4.53559 6.01867 4.69985C6.05015 4.80365 6.08527 4.89495 6.12281 4.97374C6.16035 5.05128 6.20516 5.09005 6.25602 5.09005C6.2863 5.09005 6.32868 5.06753 6.37833 5.02251C6.42919 4.97624 6.45462 4.93497 6.45462 4.89495C6.45462 4.87494 6.44494 4.86243 6.42556 4.85618C6.40724 4.84967 6.38802 4.84629 6.36864 4.84617C6.32505 4.84617 6.2863 4.82366 6.25481 4.77739C6.22236 4.72945 6.19705 4.67675 6.17973 4.62106C6.15986 4.55966 6.14088 4.49796 6.12281 4.43597C6.0851 4.26723 6.1088 4.09007 6.18942 3.93822C6.24633 3.83317 6.35048 3.77814 6.50185 3.77189V3.77189ZM4.43833 18.9845C4.5897 18.9845 4.73865 18.972 4.88397 18.9445C5.02783 18.9189 5.16582 18.8659 5.29087 18.7881C5.41078 18.7165 5.50893 18.6117 5.57424 18.4855C5.64314 18.339 5.68189 18.1793 5.68807 18.0165C5.68808 17.9002 5.66883 17.7847 5.63115 17.6751C5.59268 17.5632 5.5384 17.4579 5.47009 17.3624C5.39535 17.2401 5.31325 17.1227 5.22426 17.011C5.13523 16.8989 5.05313 16.7811 4.97843 16.6583C4.86065 16.4796 4.74359 16.3003 4.62724 16.1206C4.51462 15.9455 4.40079 15.7604 4.28817 15.564C4.18859 15.3976 4.09369 15.2283 4.00359 15.0563C3.91099 14.8807 3.80318 14.7141 3.68146 14.5585C3.6046 14.4594 3.5159 14.3708 3.41747 14.2946C3.31635 14.2162 3.19275 14.1748 3.06628 14.1771C2.93435 14.1751 2.80647 14.2242 2.70783 14.3147C2.59509 14.4161 2.4906 14.527 2.39539 14.6461C2.28373 14.7812 2.16358 14.9086 2.03573 15.0275C1.90252 15.1513 1.73298 15.2489 1.52469 15.3202C1.38374 15.3592 1.25408 15.433 1.14687 15.5353C1.05846 15.6266 1.01366 15.7666 1.01366 15.9555C1.01366 16.0855 1.02335 16.2156 1.04272 16.3457C1.06089 16.4757 1.07421 16.6071 1.08026 16.7371C1.08026 16.9122 1.05604 17.0785 1.00397 17.2349C0.955122 17.3827 0.929767 17.5377 0.928888 17.6938C0.928888 17.8702 0.989438 17.994 1.10811 18.0653C1.22921 18.1378 1.36363 18.1866 1.51501 18.2116C1.70513 18.2454 1.88436 18.2704 2.05511 18.2904C2.22464 18.3104 2.39176 18.3404 2.55646 18.3779C2.71994 18.418 2.88342 18.4592 3.04812 18.5055C3.2116 18.5505 3.38598 18.6231 3.56884 18.7206C3.60517 18.7394 3.6633 18.7631 3.73838 18.7881L3.9939 18.8757C4.08835 18.9095 4.17676 18.9357 4.2591 18.9545C4.31771 18.9707 4.37776 18.9808 4.43833 18.9845V18.9845ZM7.90175 17.8114C8.07856 17.8114 8.26747 17.7926 8.46971 17.7526C8.88145 17.6729 9.27965 17.5314 9.65163 17.3324C9.82481 17.2412 9.9894 17.1336 10.1433 17.011C10.1586 16.9932 10.1716 16.9735 10.182 16.9522C10.1941 16.9271 10.2034 16.9007 10.2099 16.8734V16.8634C10.2474 16.7209 10.2789 16.5633 10.3044 16.3944C10.3306 16.2224 10.3528 16.0498 10.371 15.8767C10.3893 15.7036 10.4115 15.531 10.4376 15.3589C10.4618 15.1901 10.4848 15.0238 10.503 14.8612C10.5284 14.6861 10.5599 14.516 10.5974 14.3534C10.6362 14.1908 10.6858 14.037 10.7488 13.8932C10.811 13.7516 10.8976 13.6228 11.0043 13.513C11.1285 13.3894 11.2687 13.2842 11.4209 13.2004V13.1803L11.4112 13.1516C11.4133 13.0853 11.433 13.0208 11.4681 12.9652C11.5105 12.8934 11.5579 12.8249 11.6098 12.7601C11.6602 12.6944 11.7213 12.6381 11.7902 12.5938C11.8533 12.5548 11.9198 12.5221 11.9888 12.4962C11.9507 12.3391 11.9095 12.1827 11.8653 12.0273C11.8215 11.8725 11.7835 11.7161 11.7515 11.5583C11.7205 11.3586 11.6829 11.16 11.6389 10.963C11.6038 10.8101 11.5593 10.6598 11.5057 10.5128C11.4514 10.3695 11.3781 10.2348 11.2877 10.1126C11.1944 9.98249 11.077 9.82491 10.9389 9.64357C10.8862 9.5827 10.8384 9.51745 10.796 9.44847C10.7631 9.37096 10.7443 9.28788 10.7403 9.20335C10.7252 9.11785 10.7062 9.03313 10.6834 8.94948C10.5983 8.63276 10.5006 8.31983 10.3903 8.01151C10.3322 7.84687 10.2626 7.68679 10.182 7.53252C10.1177 7.40898 10.0482 7.28839 9.97375 7.17109C9.91078 7.07354 9.84418 7.02476 9.77515 7.02476C9.62378 7.02476 9.44334 7.08729 9.23505 7.21111C9.02797 7.33492 8.80636 7.47124 8.57385 7.62131C8.34013 7.77139 8.11368 7.91146 7.89207 8.04152C7.67167 8.17159 7.47307 8.23287 7.29626 8.22661C7.10758 8.22649 6.92433 8.16135 6.77554 8.04152C6.61516 7.91533 6.46894 7.77103 6.33958 7.61131C6.20758 7.44872 6.09738 7.30865 6.00898 7.1911C5.92058 7.07354 5.85519 7.0085 5.81038 6.996C5.76073 6.996 5.73166 7.03477 5.72561 7.11231C5.71887 7.20009 5.71564 7.28813 5.71592 7.37619V7.54252C5.71592 7.58254 5.70987 7.60755 5.69655 7.62131C5.62752 7.77139 5.55123 7.91771 5.47009 8.06028C5.38774 8.2041 5.30661 8.35043 5.22426 8.5005C5.06114 8.78891 4.97 9.11467 4.95906 9.44847C4.95906 9.54602 4.96511 9.64357 4.97843 9.74112C4.99054 9.83867 5.02203 9.93372 5.07289 10.025L5.05351 10.0625C5.00489 10.1322 4.95104 10.1979 4.89245 10.2589C4.83278 10.3217 4.77924 10.3904 4.7326 10.464C4.50096 10.8174 4.33392 11.2116 4.23973 11.6271C4.14527 12.0435 4.09441 12.4675 4.08835 12.8964C4.08835 13.0078 4.09562 13.1191 4.10773 13.2291C4.11984 13.3404 4.12711 13.4505 4.12711 13.5618C4.12674 13.5978 4.1235 13.6338 4.11742 13.6693C4.11133 13.7049 4.10809 13.7408 4.10773 13.7769C4.24234 13.7926 4.37185 13.8391 4.48677 13.9132C4.63209 13.9982 4.78952 14.1058 4.95906 14.2359C5.12859 14.3659 5.29087 14.516 5.44224 14.6861C5.59361 14.8549 5.73772 15.02 5.87698 15.1838C6.01625 15.3464 6.11676 15.509 6.17973 15.6716C6.2427 15.8342 6.28388 15.968 6.30204 16.0718C6.3053 16.1474 6.29355 16.2229 6.26752 16.2937C6.24148 16.3644 6.20172 16.4289 6.15067 16.4832C6.04207 16.5926 5.91369 16.6789 5.77284 16.7371C5.88062 16.9322 6.01261 17.0986 6.17004 17.2349C6.32747 17.3724 6.49822 17.4825 6.68108 17.5675C6.86394 17.6526 7.06254 17.7139 7.27689 17.7526C7.49123 17.7926 7.70073 17.8114 7.90175 17.8114V17.8114ZM11.6958 19.1996C11.8278 19.1996 11.9574 19.1796 12.0833 19.1408C12.2741 19.0843 12.4558 18.9987 12.6222 18.8869C12.7869 18.7756 12.937 18.6393 13.0763 18.4755C13.4053 18.0835 13.8078 17.7644 14.2594 17.5375L14.5719 17.3912C14.6791 17.3429 14.783 17.2874 14.8831 17.2249C14.9554 17.1776 15.0224 17.1222 15.0829 17.0598C15.1134 17.0293 15.1375 16.9928 15.1537 16.9523C15.17 16.9119 15.178 16.8684 15.1774 16.8247C15.1774 16.7744 15.1676 16.7246 15.1483 16.6783C15.1257 16.6263 15.0973 16.5772 15.0635 16.532C14.9772 16.4079 14.8952 16.2807 14.8177 16.1506C14.7476 16.0322 14.6872 15.908 14.6373 15.7791L14.4859 15.3889C14.4313 15.2457 14.3868 15.0986 14.3527 14.9487C14.3395 14.9024 14.3173 14.8594 14.2873 14.8224C14.2264 14.7284 14.1433 14.6521 14.0458 14.6006C13.9483 14.5492 13.8397 14.5244 13.7302 14.5285C13.6173 14.5281 13.5062 14.5583 13.4081 14.6161L13.086 14.8024C12.9739 14.8666 12.8604 14.9283 12.7457 14.9875C12.6341 15.0455 12.5109 15.0755 12.386 15.075C12.2744 15.0801 12.1643 15.0462 12.0736 14.9787C11.9865 14.9073 11.9155 14.8173 11.8653 14.7149C11.8115 14.6105 11.7642 14.5028 11.7236 14.3922L11.6098 14.0695C11.5605 14.1532 11.5037 14.2319 11.4403 14.3047C11.3754 14.3792 11.3241 14.4652 11.2889 14.5585C11.2065 14.7536 11.1557 14.9712 11.1375 15.2126C11.106 15.5903 11.0649 15.958 11.014 16.3169C10.9622 16.6829 10.877 17.043 10.7597 17.3924C10.7262 17.5042 10.7007 17.6183 10.6834 17.7339C10.6646 17.8536 10.6517 17.9742 10.6446 18.0953C10.6446 18.4142 10.7403 18.6781 10.9292 18.8869C11.1181 19.0945 11.3737 19.1996 11.6958 19.1996V19.1996Z" fill="#8886FF"/>
</svg>
