<svg width="74" height="80" viewBox="0 0 74 80" fill="none" xmlns="http://www.w3.org/2000/svg">
<path d="M64.4088 0C69.0963 0 72.8712 3.79 73.0938 8.255V80L64.1738 72.4225L59.2788 67.97L53.9263 63.3075L56.1538 70.6525H9.36875C4.69375 70.6525 0.90625 67.11 0.90625 62.3975V8.27C0.90625 3.805 4.69625 0.015 9.38375 0.015H64.3838L64.4088 0ZM44.0163 18.945H43.9112L43.2337 19.61C50.1488 21.615 53.4938 24.74 53.4938 24.74C49.0412 22.5125 45.0163 21.3925 41.0063 20.9375C38.1163 20.495 35.2113 20.73 32.7638 20.9375H32.0863C30.5238 20.9375 27.1912 21.615 22.7238 23.3975C21.1737 24.075 20.2763 24.5175 20.2763 24.5175C20.2763 24.5175 23.6088 21.17 30.9788 19.3875L30.5238 18.945C30.5238 18.945 24.9513 18.7225 18.9362 23.1775C18.9362 23.1775 12.9212 33.66 12.9212 46.575C12.9212 46.575 16.2538 52.37 25.3963 52.59C25.3963 52.59 26.7363 50.82 28.0788 49.2575C22.9488 47.695 20.9438 44.57 20.9438 44.57C20.9438 44.57 21.3988 44.7925 22.0638 45.235H22.2588C22.3638 45.235 22.4163 45.2875 22.4663 45.34V45.365C22.5188 45.4175 22.5713 45.455 22.6613 45.455C23.7688 45.91 24.8613 46.3525 25.7613 46.795C27.3238 47.46 29.3163 48.135 31.7638 48.58C34.8638 49.035 38.4163 49.245 42.4663 48.58C44.4588 48.125 46.4637 47.695 48.4688 46.795C49.7587 46.13 51.3588 45.4675 53.1163 44.335C53.1163 44.335 51.1238 47.46 45.7713 49.0225C46.8663 50.5725 48.4137 52.355 48.4137 52.355C57.5662 52.1475 61.1213 46.3525 61.3162 46.6C61.3162 33.6975 55.2613 23.2025 55.2613 23.2025C49.8188 19.1525 44.7137 18.9975 43.8162 18.9975L43.9987 18.9325L44.0163 18.945ZM44.5763 33.66C46.9212 33.66 48.8088 35.6525 48.8088 38.1C48.8088 40.575 46.9088 42.565 44.5763 42.565C42.2313 42.565 40.3438 40.5725 40.3438 38.125C40.3438 35.65 42.2438 33.66 44.5763 33.66ZM29.4338 33.66C31.7638 33.66 33.6538 35.6525 33.6538 38.1C33.6538 40.575 31.7537 42.565 29.4212 42.565C27.0763 42.565 25.1763 40.5725 25.1763 38.125C25.1763 35.65 27.0763 33.66 29.4212 33.66H29.4338Z" fill="white" fill-opacity="0.15"/>
</svg>
