<svg width="72" height="72" viewBox="0 0 72 72" fill="none" xmlns="http://www.w3.org/2000/svg">
<path d="M63.998 0.000305176H7.99805C3.59805 0.000305176 -0.00195312 3.6003 -0.00195312 8.0003V64.0003C-0.00195312 68.4043 3.59805 72.0003 7.99805 72.0003H35.998V44.0003H27.998V34.1003H35.998V25.9003C35.998 17.2443 40.846 11.1643 51.062 11.1643L58.274 11.1723V21.5923H53.486C49.51 21.5923 47.998 24.5763 47.998 27.3443V34.1043H58.27L55.998 44.0003H47.998V72.0003H63.998C68.398 72.0003 71.998 68.4043 71.998 64.0003V8.0003C71.998 3.6003 68.398 0.000305176 63.998 0.000305176Z" fill="white" fill-opacity="0.15"/>
</svg>
