<svg width="15" height="16" viewBox="0 0 15 16" fill="none" xmlns="http://www.w3.org/2000/svg">
<path d="M7.49291 0.5C3.58291 0.5 0.416656 3.86 0.416656 8C0.416656 12.14 3.58291 15.5 7.49291 15.5C11.41 15.5 14.5833 12.14 14.5833 8C14.5833 3.86 11.41 0.5 7.49291 0.5ZM12.4017 5H10.3121C10.0904 4.07109 9.7621 3.17442 9.33457 2.33C10.6267 2.801 11.7154 3.74879 12.4017 5ZM7.49999 2.03C8.08791 2.93 8.54832 3.9275 8.85291 5H6.14707C6.45166 3.9275 6.91207 2.93 7.49999 2.03ZM2.01749 9.5C1.90416 9.02 1.83332 8.5175 1.83332 8C1.83332 7.4825 1.90416 6.98 2.01749 6.5H4.41166C4.35499 6.995 4.31249 7.49 4.31249 8C4.31249 8.51 4.35499 9.005 4.41166 9.5H2.01749ZM2.59832 11H4.68791C4.91457 11.9375 5.24041 12.8375 5.66541 13.67C4.37197 13.2016 3.28245 12.2531 2.59832 11ZM4.68791 5H2.59832C3.28245 3.74688 4.37197 2.79843 5.66541 2.33C5.23788 3.17442 4.9096 4.07109 4.68791 5ZM7.49999 13.97C6.91207 13.07 6.45166 12.0725 6.14707 11H8.85291C8.54832 12.0725 8.08791 13.07 7.49999 13.97ZM9.15749 9.5H5.84249C5.77874 9.005 5.72916 8.51 5.72916 8C5.72916 7.49 5.77874 6.9875 5.84249 6.5H9.15749C9.22124 6.9875 9.27082 7.49 9.27082 8C9.27082 8.51 9.22124 9.005 9.15749 9.5ZM9.33457 13.67C9.75957 12.8375 10.0854 11.9375 10.3121 11H12.4017C11.7154 12.2512 10.6267 13.199 9.33457 13.67ZM10.5883 9.5C10.645 9.005 10.6875 8.51 10.6875 8C10.6875 7.49 10.645 6.995 10.5883 6.5H12.9825C13.0958 6.98 13.1667 7.4825 13.1667 8C13.1667 8.5175 13.0958 9.02 12.9825 9.5H10.5883Z" fill="white"/>
</svg>
