<svg width="17" height="20" viewBox="0 0 17 20" fill="none" xmlns="http://www.w3.org/2000/svg">
<path d="M14.7711 13.945C14.9506 14.0207 15.1053 14.1497 15.2165 14.3162C15.3162 14.4725 15.3863 14.6613 15.4302 14.8825C15.454 15.0125 15.4825 15.1325 15.5133 15.245C15.5715 15.4558 15.6592 15.6563 15.7734 15.84C15.8292 15.9312 15.904 16.0312 15.9966 16.1425C16.0762 16.2337 16.1475 16.3512 16.2104 16.4937C16.2684 16.6219 16.2996 16.7618 16.3018 16.9037C16.3064 17.0402 16.2676 17.1744 16.1914 17.285C16.1139 17.3924 16.0195 17.485 15.9123 17.5588C15.7698 17.6625 15.6214 17.7537 15.467 17.8325C15.3126 17.91 15.1583 17.9913 15.0039 18.0763C14.7731 18.192 14.5525 18.3292 14.3448 18.4862C14.1596 18.63 13.9731 18.8113 13.7879 19.0338C13.5719 19.2884 13.3219 19.5086 13.0457 19.6875C12.9046 19.7817 12.7515 19.8541 12.5909 19.9025C12.4365 19.9475 12.2821 19.9775 12.1278 19.99C11.7691 19.99 11.4723 19.925 11.2371 19.795C11.002 19.665 10.7978 19.4275 10.6244 19.0825C10.5745 18.9837 10.5258 18.9225 10.476 18.8962C10.3989 18.8619 10.3178 18.8388 10.2349 18.8275L9.29558 18.75C8.98683 18.725 8.67214 18.7113 8.35033 18.7113C8.08306 18.7116 7.81623 18.7342 7.55233 18.7787C7.28039 18.825 7.01083 18.88 6.74483 18.945C6.6902 18.9575 6.63439 19.0075 6.57858 19.0912C6.50909 19.1929 6.4312 19.2878 6.34583 19.375C6.23014 19.491 6.09533 19.5837 5.94801 19.6488C5.73809 19.7351 5.51431 19.7779 5.28895 19.775C5.0847 19.775 4.86502 19.7525 4.62989 19.7075C4.40992 19.6672 4.19721 19.5913 3.99933 19.4825C3.64237 19.2903 3.26136 19.1523 2.86764 19.0725C2.49595 19.0013 2.10408 18.935 1.68964 18.8775C1.55228 18.8587 1.41593 18.8324 1.28114 18.7987C1.15663 18.7691 1.03934 18.7125 0.936765 18.6325C0.842633 18.5592 0.764152 18.466 0.70639 18.3587C0.643066 18.2222 0.610941 18.0719 0.612578 17.92C0.612578 17.7175 0.637515 17.5225 0.68739 17.3337C0.737265 17.1462 0.764578 16.9462 0.770515 16.7388C0.770515 16.595 0.761015 16.455 0.743203 16.3188C0.723564 16.1728 0.710882 16.026 0.705203 15.8787C0.705203 15.5475 0.780015 15.3037 0.928453 15.1462C1.07689 14.99 1.29302 14.8663 1.57802 14.775C1.70463 14.7347 1.82387 14.6721 1.9307 14.59C2.02871 14.5122 2.12155 14.4274 2.20858 14.3363C2.29693 14.2428 2.37758 14.1416 2.44964 14.0338C2.52445 13.9225 2.60758 13.8113 2.7002 13.7013C2.71868 13.6762 2.72871 13.6454 2.7287 13.6137C2.7287 13.535 2.72514 13.46 2.7192 13.3888L2.7002 13.1537C2.7002 12.7112 2.76552 12.2662 2.89495 11.8162C3.02558 11.3663 3.19539 10.9288 3.40558 10.4975C3.61544 10.0688 3.85104 9.65464 4.11095 9.2575C4.36983 8.86125 4.62751 8.4925 4.88045 8.15375C5.22402 7.70099 5.49662 7.19334 5.68795 6.65C5.86608 6.13 5.95989 5.5625 5.96583 4.95C5.96583 4.69125 5.95395 4.43375 5.92902 4.18C5.9041 3.92041 5.89181 3.65966 5.8922 3.39875C5.8922 2.8775 5.94801 2.40875 6.05845 1.9925C6.17008 1.575 6.34345 1.2175 6.57858 0.9175C6.8137 0.6175 7.12008 0.39375 7.49652 0.24375C7.87533 0.09375 8.32658 0.0125 8.85145 0C9.47726 0 9.97483 0.13 10.3465 0.39125C10.717 0.65125 11.002 0.9925 11.1991 1.41625C11.3975 1.83875 11.5245 2.31125 11.5791 2.8325C11.6361 3.3525 11.667 3.88 11.673 4.41375V4.58C11.673 4.8475 11.6753 5.085 11.6825 5.2925C11.6935 5.71437 11.7848 6.12963 11.9508 6.51375C12.0375 6.715 12.167 6.93375 12.3403 7.1675C12.6372 7.57875 12.9412 7.9925 13.25 8.40875C13.5587 8.825 13.8401 9.255 14.0931 9.69625C14.3472 10.14 14.555 10.6025 14.7153 11.0837C14.8768 11.5662 14.96 12.0862 14.9659 12.6462C14.9675 13.0878 14.9017 13.5267 14.7711 13.9462V13.945ZM6.98827 3.77C7.07377 3.77 7.14501 3.7925 7.20201 3.8375C7.25993 3.88656 7.30457 3.95079 7.33145 4.02375C7.36126 4.09882 7.38278 4.17726 7.39558 4.2575C7.40745 4.33625 7.41458 4.4175 7.41458 4.5025C7.41651 4.55619 7.40677 4.60963 7.38608 4.65875C7.36573 4.70025 7.33743 4.73686 7.30295 4.76625L7.19133 4.86375C7.15153 4.89923 7.11459 4.93811 7.08089 4.98C7.03636 5.05298 6.97563 5.11347 6.90395 5.15625C6.83041 5.20119 6.75907 5.25 6.6902 5.3025C6.62442 5.35274 6.56248 5.40832 6.50495 5.46875C6.4762 5.50138 6.45401 5.53979 6.43973 5.58168C6.42544 5.62357 6.41935 5.66807 6.42183 5.7125C6.42183 5.77125 6.44914 5.82 6.50495 5.85875C6.64342 5.95055 6.75325 6.08311 6.82083 6.24C6.88258 6.39 6.95145 6.53625 7.02508 6.68C7.0987 6.8225 7.19489 6.9425 7.31245 7.04125C7.43001 7.13875 7.61289 7.1875 7.8587 7.1875H7.9157C8.1627 7.175 8.39783 7.10625 8.62108 6.9825C8.84314 6.85875 9.06639 6.72875 9.28845 6.59125C9.32714 6.56836 9.36767 6.54912 9.40958 6.53375C9.45272 6.51755 9.49318 6.49436 9.52951 6.465L10.2064 5.90875C10.2182 5.86685 10.2277 5.82428 10.2349 5.78125C10.2421 5.73556 10.2484 5.68971 10.2539 5.64375C10.256 5.5816 10.2393 5.52036 10.2064 5.46875C10.176 5.42341 10.1387 5.3837 10.096 5.35125C10.0485 5.31717 9.99462 5.29416 9.93801 5.28375C9.88142 5.27179 9.82582 5.25507 9.77176 5.23375C9.62375 5.20172 9.48225 5.14248 9.35376 5.05875C9.22621 4.97537 9.08889 4.90982 8.94526 4.86375C8.92151 4.85625 8.90251 4.8375 8.88945 4.805C8.87531 4.76651 8.86303 4.72729 8.85264 4.6875C8.84042 4.64629 8.83717 4.60271 8.84314 4.56C8.8499 4.52726 8.84658 4.49311 8.83364 4.4625C8.83364 4.385 8.83958 4.30375 8.85264 4.21875C8.86546 4.1327 8.89366 4.04999 8.93576 3.975C8.97197 3.90555 9.02273 3.8457 9.0842 3.8C9.15742 3.75503 9.2405 3.7309 9.32526 3.73C9.51764 3.73 9.65658 3.805 9.74326 3.955C9.82995 4.105 9.87626 4.2675 9.8822 4.4425C9.88373 4.52028 9.86787 4.59736 9.83589 4.6675C9.80419 4.73423 9.78792 4.8079 9.78839 4.8825C9.78839 4.935 9.80501 4.97 9.83589 4.99C9.87329 5.01158 9.91453 5.02478 9.95702 5.02875C10.0995 5.02875 10.191 4.99375 10.2349 4.9225C10.2849 4.82325 10.3102 4.71231 10.3085 4.6C10.3085 4.45 10.2966 4.28375 10.2729 4.10125C10.2494 3.92469 10.1989 3.7533 10.1233 3.59375C10.0541 3.44392 9.95622 3.31072 9.83589 3.2025C9.70703 3.09473 9.54549 3.03968 9.38108 3.0475C9.06045 3.0475 8.8277 3.13125 8.6852 3.30125C8.5427 3.47 8.46908 3.72375 8.46314 4.0625C8.46314 4.16 8.46908 4.2575 8.48095 4.355C8.49283 4.45375 8.49995 4.55125 8.49995 4.64875C8.49995 4.68125 8.49639 4.6975 8.49045 4.6975C8.47119 4.69309 8.45246 4.68638 8.43464 4.6775C8.39765 4.66171 8.36083 4.64546 8.3242 4.62875C8.27881 4.60857 8.23195 4.59227 8.18408 4.58C8.10516 4.55982 8.0232 4.55642 7.94302 4.57C7.89378 4.57657 7.84421 4.57991 7.79458 4.58C7.70789 4.58 7.66395 4.56375 7.66395 4.53125C7.66395 4.43375 7.6592 4.31 7.64614 4.16C7.63426 4.01 7.60339 3.86 7.55351 3.71C7.51205 3.57654 7.44941 3.45144 7.36826 3.34C7.29345 3.2425 7.18301 3.19 7.03458 3.18375C6.93486 3.18133 6.83817 3.21989 6.76502 3.29125C6.68879 3.36548 6.62319 3.45096 6.57026 3.545C6.51336 3.64656 6.47849 3.7601 6.46814 3.8775C6.45818 3.98195 6.44591 4.08615 6.43133 4.19C6.43609 4.36245 6.46408 4.53332 6.51445 4.6975C6.54533 4.80125 6.57976 4.8925 6.61658 4.97125C6.65339 5.04875 6.69733 5.0875 6.7472 5.0875C6.77689 5.0875 6.81845 5.065 6.86714 5.02C6.91702 4.97375 6.94195 4.9325 6.94195 4.8925C6.94195 4.8725 6.93245 4.86 6.91345 4.85375C6.89549 4.84724 6.87664 4.84386 6.85764 4.84375C6.81489 4.84375 6.77689 4.82125 6.74601 4.775C6.71419 4.72708 6.68938 4.67441 6.67239 4.61875C6.6529 4.55738 6.6343 4.49571 6.61658 4.43375C6.57959 4.2651 6.60284 4.08802 6.68189 3.93625C6.7377 3.83125 6.83983 3.77625 6.98827 3.77ZM4.96476 18.975C5.1132 18.975 5.25926 18.9625 5.40176 18.935C5.54283 18.9095 5.67814 18.8565 5.80077 18.7787C5.91835 18.7071 6.0146 18.6024 6.07864 18.4762C6.1462 18.3298 6.18421 18.1702 6.19026 18.0075C6.19027 17.8912 6.1714 17.7758 6.13445 17.6663C6.09672 17.5545 6.0435 17.4492 5.97651 17.3538C5.90322 17.2315 5.82271 17.1142 5.73545 17.0025C5.64815 16.8904 5.56764 16.7727 5.49439 16.65C5.3789 16.4713 5.2641 16.2922 5.15001 16.1125C5.03958 15.9375 4.92795 15.7525 4.81751 15.5562C4.71987 15.3899 4.62681 15.2207 4.53845 15.0487C4.44766 14.8732 4.34193 14.7067 4.22258 14.5512C4.14721 14.4522 4.06022 14.3636 3.9637 14.2875C3.86454 14.2091 3.74335 14.1677 3.61933 14.17C3.48996 14.168 3.36456 14.217 3.26783 14.3075C3.15728 14.4089 3.05481 14.5197 2.96145 14.6388C2.85195 14.7738 2.73414 14.9012 2.60877 15.02C2.47814 15.1438 2.31189 15.2413 2.10764 15.3125C1.96942 15.3515 1.84228 15.4253 1.73714 15.5275C1.65045 15.6187 1.60652 15.7588 1.60652 15.9475C1.60652 16.0775 1.61602 16.2075 1.63502 16.3375C1.65283 16.4675 1.66589 16.5988 1.67183 16.7288C1.67183 16.9038 1.64808 17.07 1.59702 17.2262C1.54911 17.374 1.52425 17.5289 1.52339 17.685C1.52339 17.8612 1.58277 17.985 1.69914 18.0562C1.81789 18.1287 1.9497 18.1775 2.09814 18.2025C2.28458 18.2362 2.46033 18.2612 2.62777 18.2812C2.79402 18.3013 2.95789 18.3312 3.11939 18.3687C3.2797 18.4088 3.44001 18.45 3.60151 18.4963C3.76183 18.5413 3.93283 18.6138 4.11214 18.7113C4.14776 18.73 4.20477 18.7537 4.27839 18.7787L4.52895 18.8663C4.62158 18.9 4.70826 18.9263 4.78901 18.945C4.84648 18.9612 4.90537 18.9713 4.96476 18.975ZM8.36101 17.8025C8.53439 17.8025 8.71964 17.7838 8.91795 17.7437C9.32171 17.6641 9.71219 17.5226 10.077 17.3237C10.2468 17.2326 10.4082 17.1251 10.5591 17.0025C10.5741 16.9847 10.5869 16.965 10.5971 16.9438C10.6089 16.9186 10.6181 16.8922 10.6244 16.865V16.855C10.6612 16.7125 10.6921 16.555 10.717 16.3862C10.7427 16.2143 10.7645 16.0418 10.7823 15.8687C10.8003 15.6957 10.8221 15.5232 10.8476 15.3512C10.8714 15.1825 10.894 15.0163 10.9118 14.8538C10.9367 14.6788 10.9676 14.5087 11.0044 14.3463C11.0424 14.1838 11.0911 14.03 11.1528 13.8863C11.2139 13.7447 11.2988 13.616 11.4034 13.5063C11.5252 13.3827 11.6626 13.2775 11.8119 13.1938V13.1737L11.8024 13.145C11.8045 13.0787 11.8238 13.0143 11.8582 12.9587C11.8998 12.887 11.9462 12.8185 11.9971 12.7537C12.0466 12.688 12.1064 12.6318 12.1741 12.5875C12.2359 12.5485 12.3011 12.5159 12.3688 12.49C12.3314 12.3329 12.291 12.1766 12.2477 12.0212C12.2047 11.8666 12.1675 11.7102 12.1361 11.5525C12.1057 11.3529 12.0689 11.1545 12.0256 10.9575C11.9912 10.8047 11.9476 10.6544 11.895 10.5075C11.8419 10.3643 11.7699 10.2297 11.6813 10.1075C11.5898 9.9775 11.4746 9.82 11.3393 9.63875C11.2875 9.57791 11.2407 9.51269 11.1991 9.44375C11.1669 9.36627 11.1484 9.28324 11.1445 9.19875C11.1297 9.11329 11.1111 9.02861 11.0887 8.945C11.0053 8.62844 10.9094 8.31567 10.8013 8.0075C10.7443 7.84295 10.676 7.68295 10.5971 7.52875C10.534 7.40527 10.4659 7.28474 10.3928 7.1675C10.3311 7.07 10.2658 7.02125 10.1981 7.02125C10.0496 7.02125 9.8727 7.08375 9.66845 7.2075C9.46539 7.33125 9.24808 7.4675 9.02008 7.6175C8.79089 7.7675 8.56883 7.9075 8.35151 8.0375C8.13539 8.1675 7.94064 8.22875 7.76726 8.2225C7.58224 8.22237 7.40254 8.15727 7.25664 8.0375C7.09938 7.91137 6.95599 7.76714 6.82914 7.6075C6.6997 7.445 6.59164 7.305 6.50495 7.1875C6.41827 7.07 6.35414 7.005 6.3102 6.9925C6.26152 6.9925 6.23302 7.03125 6.22708 7.10875C6.22047 7.19649 6.2173 7.28448 6.21758 7.3725V7.53875C6.21758 7.57875 6.21164 7.60375 6.19858 7.6175C6.13089 7.7675 6.05608 7.91375 5.97651 8.05625C5.89576 8.2 5.8162 8.34625 5.73545 8.49625C5.5755 8.78451 5.48613 9.11011 5.47539 9.44375C5.47539 9.54125 5.48133 9.63875 5.49439 9.73625C5.50626 9.83375 5.53714 9.92875 5.58702 10.02L5.56802 10.0575C5.52034 10.1272 5.46753 10.1928 5.41008 10.2537C5.35156 10.3165 5.29906 10.3852 5.25333 10.4587C5.02618 10.812 4.86238 11.206 4.77002 11.6213C4.67739 12.0375 4.62751 12.4613 4.62158 12.89C4.62158 13.0013 4.6287 13.1125 4.64058 13.2225C4.65245 13.3337 4.65958 13.4437 4.65958 13.555C4.65922 13.591 4.65604 13.627 4.65008 13.6625C4.64411 13.698 4.64093 13.734 4.64058 13.77C4.77258 13.7857 4.89957 13.8322 5.01227 13.9062C5.15477 13.9913 5.30914 14.0988 5.47539 14.2288C5.64164 14.3588 5.80077 14.5087 5.9492 14.6788C6.09764 14.8475 6.23895 15.0125 6.37551 15.1762C6.51208 15.3387 6.61064 15.5013 6.67239 15.6637C6.73414 15.8263 6.77451 15.96 6.79233 16.0637C6.79552 16.1393 6.784 16.2148 6.75847 16.2855C6.73295 16.3562 6.69395 16.4207 6.64389 16.475C6.5374 16.5843 6.41151 16.6706 6.27339 16.7288C6.37908 16.9237 6.50851 17.09 6.66289 17.2262C6.81727 17.3638 6.9847 17.4737 7.16401 17.5588C7.34333 17.6437 7.53808 17.705 7.74826 17.7437C7.95845 17.7838 8.16389 17.8025 8.36101 17.8025ZM12.0815 19.19C12.2109 19.19 12.338 19.17 12.4615 19.1313C12.6486 19.0748 12.8267 18.9892 12.9899 18.8775C13.1514 18.7663 13.2986 18.63 13.4352 18.4662C13.7578 18.0745 14.1525 17.7555 14.5954 17.5287L14.9018 17.3825C15.0069 17.3343 15.1088 17.2787 15.207 17.2162C15.2778 17.169 15.3435 17.1137 15.4029 17.0513C15.4328 17.0208 15.4564 16.9843 15.4723 16.9439C15.4883 16.9034 15.4962 16.86 15.4955 16.8162C15.4956 16.766 15.4859 16.7162 15.467 16.67C15.4449 16.618 15.417 16.5689 15.3839 16.5238C15.2993 16.3997 15.2188 16.2726 15.1428 16.1425C15.0741 16.0242 15.0149 15.9 14.9659 15.7712L14.8175 15.3813C14.7639 15.2381 14.7203 15.091 14.6868 14.9412C14.6739 14.895 14.6521 14.852 14.6227 14.815C14.563 14.7211 14.4815 14.6447 14.3859 14.5933C14.2903 14.5419 14.1837 14.5171 14.0765 14.5212C13.9657 14.5208 13.8568 14.551 13.7606 14.6088L13.4447 14.795C13.3348 14.8592 13.2235 14.9209 13.111 14.98C13.0016 15.0379 12.8808 15.0679 12.7583 15.0675C12.6488 15.0725 12.5409 15.0386 12.452 14.9713C12.3666 14.8999 12.2969 14.8099 12.2477 14.7075C12.1949 14.6032 12.1485 14.4955 12.1088 14.385L11.9971 14.0625C11.9488 14.1461 11.8931 14.2248 11.8309 14.2975C11.7673 14.372 11.717 14.458 11.6825 14.5512C11.6017 14.7463 11.5518 14.9637 11.534 15.205C11.5031 15.5825 11.4628 15.95 11.4129 16.3088C11.3621 16.6745 11.2786 17.0345 11.1635 17.3837C11.1307 17.4954 11.1057 17.6095 11.0887 17.725C11.0703 17.8447 11.0576 17.9652 11.0507 18.0863C11.0507 18.405 11.1445 18.6688 11.3298 18.8775C11.515 19.085 11.7656 19.19 12.0815 19.19Z" fill="#636D85"/>
</svg>
