<svg width="25" height="31" viewBox="0 0 25 31" fill="none" xmlns="http://www.w3.org/2000/svg">
<path d="M17.0024 4.92892C15.9118 6.22026 14.1669 7.23878 12.422 7.09328C12.2038 5.34724 13.0581 3.49208 14.0578 2.34624C15.1484 1.01852 17.0569 0.0727516 18.6019 0C18.7837 1.81879 18.0748 3.6012 17.0024 4.92892ZM18.5837 7.43885C16.0572 7.29335 13.8942 8.87569 12.6946 8.87569C11.4768 8.87569 9.64098 7.5116 7.64158 7.54798C5.04236 7.58435 2.62491 9.05757 1.29804 11.4038C-1.42842 16.0963 0.589159 23.0441 3.22473 26.8635C4.51525 28.7551 6.06024 30.8285 8.09599 30.7557C10.0227 30.683 10.7861 29.5008 13.1127 29.5008C15.4574 29.5008 16.1299 30.7557 18.1657 30.7194C20.2741 30.683 21.601 28.8278 22.8915 26.9363C24.3638 24.7901 24.9636 22.6985 25 22.5894C24.9636 22.553 20.9285 21.007 20.8921 16.3509C20.8558 12.4587 24.073 10.6035 24.2184 10.4944C22.4008 7.80261 19.5653 7.5116 18.5837 7.43885Z" fill="white"/>
</svg>
