<svg width="31" height="36" viewBox="0 0 31 36" fill="none" xmlns="http://www.w3.org/2000/svg">
<path d="M16.0289 0C15.7923 0 15.5482 0.01184 15.2979 0.03108C8.84682 0.52392 10.5576 7.14544 10.46 9.35212C10.3424 10.9698 10.0021 12.244 8.85597 13.8232C7.50533 15.3787 5.60984 17.8932 4.71094 20.5143C4.28667 21.7456 4.08522 23.0066 4.27293 24.198C4.21341 24.2483 4.15695 24.2986 4.10353 24.3978C3.70673 24.7944 3.41829 25.2873 3.09322 25.6395C2.78951 25.934 2.35303 26.0347 1.87687 26.2315C1.39919 26.4328 0.872662 26.6296 0.558275 27.2394C0.420921 27.5176 0.350718 27.821 0.356822 28.1289C0.356822 28.4234 0.398028 28.7224 0.440761 28.9222C0.529278 29.5127 0.617795 30.0011 0.500281 30.3578C0.121795 31.3642 0.0744839 32.0538 0.340035 32.5556C0.605585 33.0499 1.15653 33.2497 1.77309 33.445C3.0108 33.741 4.68805 33.6448 6.00817 34.3316C7.42139 35.0227 8.85597 35.3246 10.0006 35.0272C10.8033 34.857 11.481 34.3419 11.8442 33.6286C12.74 33.6241 13.7214 33.2304 15.2933 33.1342C16.3601 33.0484 17.6955 33.5294 19.2277 33.4288C19.2659 33.6286 19.3239 33.7233 19.4017 33.9231L19.4063 33.9275C20.003 35.079 21.1049 35.6029 22.2815 35.5126C23.4582 35.4238 24.7112 34.7193 25.7261 33.5797C26.6891 32.4475 28.2946 31.9754 29.3553 31.3553C29.8864 31.0608 30.3152 30.6612 30.3457 30.0928C30.3808 29.5008 30.042 28.8911 29.2561 28.0549V27.9113L29.2515 27.9069C28.992 27.6109 28.87 27.1151 28.7357 26.5364C28.6059 25.9429 28.4579 25.3731 27.9848 24.9883H27.9802C27.8902 24.9084 27.7925 24.8892 27.6933 24.7885C27.6078 24.7323 27.5086 24.6968 27.4033 24.6938C28.0611 22.8024 27.8062 20.9198 27.1393 19.2267C26.3259 17.1399 24.9035 15.3224 23.8199 14.0718C22.6051 12.5844 21.4147 11.1755 21.4376 9.08572C21.4788 5.90076 21.7993 0.00888 16.0289 0ZM16.8362 5.0394H16.8561C17.1811 5.0394 17.4604 5.13116 17.7473 5.33244C18.0388 5.53224 18.251 5.8238 18.4173 6.12128C18.5776 6.5046 18.6585 6.8006 18.6707 7.1928C18.6707 7.1632 18.6798 7.1336 18.6798 7.10548V7.2594C18.6768 7.24904 18.6737 7.2372 18.6737 7.22832L18.6676 7.1928C18.6646 7.55244 18.5867 7.90764 18.4387 8.23768C18.367 8.42268 18.2571 8.59288 18.1136 8.73348C18.0694 8.7098 18.0266 8.68908 17.9793 8.67132C17.8191 8.60472 17.6756 8.5766 17.5444 8.47448C17.436 8.43304 17.3231 8.399 17.2101 8.3768C17.2849 8.28948 17.4314 8.17996 17.4879 8.08376C17.5688 7.89432 17.613 7.69304 17.6222 7.4888V7.46068C17.6253 7.26088 17.5947 7.0596 17.5291 6.86868C17.4604 6.66888 17.375 6.5712 17.2498 6.37436C17.1216 6.27668 16.995 6.179 16.8423 6.179H16.8179C16.676 6.179 16.5493 6.2234 16.4181 6.37436C16.2731 6.51348 16.1647 6.68072 16.1052 6.86868C16.0243 7.05664 15.977 7.2594 15.9678 7.46068V7.4888C15.9709 7.62052 15.9801 7.75372 15.9984 7.88396C15.7038 7.7848 15.3299 7.68416 15.072 7.585C15.0567 7.4888 15.0476 7.38964 15.0445 7.29048V7.26088C15.0323 6.87016 15.1102 6.4824 15.2734 6.12276C15.3986 5.79864 15.6275 5.52188 15.9297 5.33392C16.1907 5.143 16.5081 5.0394 16.8362 5.0394ZM12.3158 5.12672H12.3707C12.5874 5.12672 12.7828 5.19776 12.9796 5.32652C13.2025 5.51744 13.3825 5.75276 13.5046 6.01472C13.642 6.30924 13.7198 6.6082 13.7381 7.00188V7.0078C13.7488 7.20612 13.7473 7.30528 13.7351 7.40148V7.51988C13.6893 7.53024 13.6496 7.54652 13.6084 7.5554C13.3764 7.6368 13.1902 7.7552 13.0086 7.8514C13.027 7.71968 13.0285 7.58648 13.0132 7.45624V7.43404C12.9949 7.2372 12.9537 7.13952 12.8881 6.9412C12.8408 6.79024 12.7538 6.65556 12.6347 6.54604C12.5599 6.47944 12.4592 6.4454 12.3554 6.45132H12.3234C12.215 6.4602 12.125 6.512 12.0395 6.64668C11.9419 6.76064 11.8793 6.89976 11.8564 7.04628C11.8152 7.20612 11.803 7.3704 11.8213 7.53616V7.55688C11.8396 7.75668 11.8778 7.85436 11.9449 8.0512C12.0136 8.24952 12.0929 8.3472 12.1967 8.44784C12.2135 8.46116 12.2288 8.47448 12.2486 8.48336C12.1418 8.56772 12.0701 8.58696 11.98 8.68464C11.9235 8.72608 11.8579 8.77344 11.7801 8.78528C11.6214 8.60028 11.481 8.40048 11.3604 8.19032C11.2139 7.87952 11.1376 7.54208 11.1238 7.20316C11.0979 6.86868 11.1406 6.5342 11.2459 6.21452C11.3299 5.92296 11.4779 5.6536 11.6778 5.42272C11.8732 5.22588 12.0746 5.12672 12.3158 5.12672ZM14.4081 7.6516C14.9133 7.6516 15.5253 7.7478 16.2624 8.24212C16.7096 8.53812 17.0606 8.64024 17.8694 8.93476H17.874C18.2632 9.13604 18.4921 9.32844 18.6035 9.52528V9.3314C18.7149 9.54896 18.7226 9.80204 18.6279 10.027C18.4402 10.4873 17.8404 10.9801 17.0041 11.2746V11.2776C16.5951 11.4774 16.2395 11.7704 15.8213 11.9658C15.4001 12.1656 14.924 12.398 14.2769 12.361C14.0449 12.3728 13.8114 12.3388 13.5932 12.2618C13.4253 12.173 13.2605 12.0753 13.1017 11.9688C12.8041 11.769 12.5477 11.4774 12.1677 11.2806V11.2732H12.1601C11.5496 10.9091 11.22 10.5154 11.1132 10.2209C11.0078 9.82424 11.1055 9.52676 11.4077 9.33288C11.7496 9.13308 11.9876 8.9318 12.1448 8.8356C12.3036 8.72608 12.3631 8.68464 12.4134 8.64172H12.4165V8.63728C12.6744 8.33832 13.0819 7.94316 13.6969 7.7478C13.9091 7.69452 14.1456 7.6516 14.4081 7.6516ZM18.6798 10.8232C19.2277 12.9204 20.5066 15.9662 21.3292 17.4433C21.7657 18.2336 22.6341 19.8986 23.0111 21.9188C23.2491 21.9114 23.5132 21.9454 23.794 22.0135C24.7799 19.5404 22.9607 16.8824 22.132 16.1438C21.7947 15.8464 21.7779 15.648 21.9443 15.648C22.8432 16.4384 24.0275 17.9746 24.4563 19.7284C24.6532 20.5202 24.699 21.3623 24.4884 22.2C24.5906 22.2414 24.6944 22.2903 24.8012 22.2992C26.3762 23.0895 26.9577 23.6874 26.6784 24.5739V24.5103C26.5853 24.5058 26.4953 24.5103 26.4022 24.5103H26.3793C26.6097 23.8191 26.1015 23.2893 24.7539 22.6988C23.3575 22.1068 22.2419 22.2015 22.0511 23.387C22.0404 23.4506 22.0328 23.4846 22.0252 23.5868C21.9214 23.6208 21.813 23.6652 21.7062 23.6815C21.0499 24.0781 20.6959 24.6716 20.4959 25.4382C20.2975 26.2271 20.2365 27.1491 20.1831 28.2044V28.2088C20.151 28.7031 19.9221 29.449 19.6962 30.2083C17.407 31.7948 14.2326 32.4845 11.5328 30.7026C11.3634 30.417 11.1574 30.1491 10.9193 29.9138C10.8064 29.7288 10.6629 29.563 10.4996 29.4194C10.7774 29.4194 11.0155 29.3765 11.2093 29.3203C11.4306 29.2211 11.6015 29.042 11.6885 28.826C11.8533 28.4308 11.6885 27.7944 11.162 27.1047C10.6355 26.4136 9.74114 25.6321 8.43323 24.8536C7.47175 24.2631 6.92844 23.566 6.67815 22.7876C6.42634 21.9972 6.45991 21.1818 6.65526 20.353C7.02917 18.7694 7.98759 17.2302 8.59958 16.2637C8.76288 16.1675 8.65605 16.4635 7.97691 17.7052C7.37255 18.8167 6.23557 21.4008 7.79072 23.4092C7.84871 21.9454 8.18447 20.501 8.77814 19.1527C9.63889 17.2612 11.4382 13.9668 11.5802 11.356C11.6534 11.4093 11.9113 11.5558 12.0212 11.655C12.3539 11.8518 12.6012 12.1478 12.9216 12.3432C13.2437 12.6407 13.6496 12.839 14.2586 12.839C14.3181 12.8434 14.373 12.8479 14.428 12.8479C15.0552 12.8479 15.5405 12.6496 15.948 12.4512C16.3906 12.2529 16.7431 11.9569 17.0774 11.8592H17.085C17.7977 11.6594 18.3609 11.2643 18.6798 10.8232ZM22.016 24.0811C22.0725 24.9706 22.5395 25.9237 23.3621 26.119C24.2594 26.3174 25.5506 25.6262 26.0954 24.9868L26.4174 24.9735C26.8982 24.9617 27.298 24.9883 27.7101 25.3687L27.7147 25.3731C28.0321 25.6676 28.1801 26.159 28.3114 26.6696C28.4411 27.2631 28.5464 27.824 28.9356 28.2473C29.6773 29.0272 29.92 29.5882 29.9062 29.9345L29.9108 29.9256V29.9522L29.9062 29.9345C29.8833 30.3222 29.6239 30.5206 29.1462 30.8151C28.1847 31.4086 26.4815 31.8688 25.3964 33.1387C24.4533 34.2294 23.3041 34.8244 22.2892 34.9014C21.2758 34.9798 20.4013 34.6054 19.887 33.5723L19.8794 33.5679C19.5589 32.9744 19.6962 32.0509 19.9648 31.0667C20.2335 30.078 20.618 29.0761 20.6715 28.2576C20.7279 27.2009 20.7874 26.2818 20.9691 25.5729C21.1522 24.8847 21.4391 24.3934 21.9473 24.1166L22.016 24.084V24.0811ZM5.51064 24.1536H5.52591C5.60679 24.1536 5.68615 24.161 5.76551 24.1743C6.33935 24.2557 6.84298 24.6672 7.32677 25.2873L8.71557 27.75L8.72015 27.7544C9.091 28.5433 9.87087 29.3292 10.5347 30.1787C11.1971 31.0637 11.7099 31.8526 11.6473 32.5023V32.5112C11.5603 33.6123 10.9163 34.2102 9.93039 34.4263C8.94602 34.6261 7.61063 34.4292 6.27525 33.7396C4.79793 32.9463 3.04285 33.0454 1.91503 32.8486C1.35187 32.7509 0.982545 32.5511 0.811616 32.2551C0.642213 31.9606 0.639161 31.3656 0.999333 30.4347V30.4303L1.00239 30.4258C1.18095 29.9315 1.04817 29.3114 0.961179 28.7697C0.877241 28.1762 0.834508 27.7204 1.0268 27.3785C1.27099 26.8842 1.63116 26.788 2.07832 26.5897C2.52854 26.3899 3.05659 26.2907 3.47628 25.8956H3.47933V25.8911C3.87003 25.4945 4.15847 25.0016 4.4988 24.6509C4.78877 24.3534 5.07874 24.1536 5.51064 24.1536ZM16.4364 10.7241C15.7725 11.0216 14.9942 11.5159 14.1655 11.5159C13.3383 11.5159 12.6851 11.1207 12.2135 10.8262C11.977 10.6279 11.7862 10.4296 11.6427 10.3304C11.3924 10.1321 11.423 9.83608 11.5298 9.83608C11.6961 9.85976 11.7267 10.0359 11.8335 10.1336C11.98 10.2312 12.1616 10.4281 12.3844 10.6264C12.8286 10.9224 13.4222 11.3176 14.1639 11.3176C14.9041 11.3176 15.771 10.9224 16.2975 10.6279C16.5951 10.4281 16.9766 10.1336 17.2864 9.93672C17.5245 9.73396 17.5138 9.54008 17.7122 9.54008C17.9091 9.56376 17.7641 9.7384 17.4879 10.0329C17.2117 10.2327 16.7843 10.5287 16.4349 10.7256V10.7241H16.4364ZM14.7851 8.37976V8.3472C14.7759 8.31908 14.8049 8.28504 14.8293 8.2732C14.9423 8.20956 15.104 8.23324 15.2261 8.27912C15.3223 8.27912 15.4703 8.37828 15.4551 8.47892C15.4459 8.55144 15.3253 8.5766 15.249 8.5766C15.1651 8.5766 15.1086 8.51296 15.0338 8.47596C14.9545 8.44932 14.811 8.46412 14.7851 8.37976ZM13.9442 8.37976C13.9136 8.4656 13.7717 8.45228 13.6908 8.47744C13.6191 8.51444 13.5596 8.57808 13.4787 8.57808C13.4009 8.57808 13.2788 8.54996 13.2696 8.47744C13.2559 8.37976 13.4039 8.2806 13.4985 8.2806C13.6222 8.23472 13.7793 8.21104 13.8938 8.2732C13.9228 8.28652 13.9487 8.3176 13.9396 8.3472V8.37828H13.9442V8.37976Z" fill="white"/>
</svg>
