<svg width="26" height="30" viewBox="0 0 26 30" fill="none" xmlns="http://www.w3.org/2000/svg">
<path d="M3.84 11.4062V19.0602C3.84 20.078 3.03333 20.891 2.00667 20.891C0.986667 20.891 0 20.0714 0 19.0602V11.4062C0 10.4082 0.986667 9.5886 2.00667 9.5886C3.01333 9.5886 3.84 10.4082 3.84 11.4062ZM4.56 21.7833C4.56 22.8673 5.44 23.7398 6.53333 23.7398H7.86L7.88 27.7782C7.88 30.2172 11.56 30.1973 11.56 27.7782V23.7398H14.04V27.7782C14.04 30.2039 17.74 30.2106 17.74 27.7782V23.7398H19.0867C20.1667 23.7398 21.0467 22.8673 21.0467 21.7833V9.92569H4.56V21.7833V21.7833ZM21.0933 9.28456H4.48667C4.48667 6.45565 6.19333 3.99688 8.72667 2.71462L7.45333 0.381426C7.26667 0.0575559 7.74 -0.147342 7.9 0.130262L9.19333 2.48328C11.52 1.45879 14.1933 1.51167 16.4133 2.48328L17.7 0.136871C17.8667 -0.147342 18.3333 0.0641654 18.1467 0.388036L16.8733 2.71462C19.3867 3.99688 21.0933 6.45565 21.0933 9.28456V9.28456ZM9.71333 5.61623C9.71333 5.23948 9.40667 4.92222 9.01333 4.92222C8.63333 4.92222 8.33333 5.23948 8.33333 5.61623C8.33333 5.99298 8.64 6.31024 9.01333 6.31024C9.40667 6.31024 9.71333 5.99298 9.71333 5.61623ZM17.2733 5.61623C17.2733 5.23948 16.9667 4.92222 16.5933 4.92222C16.2 4.92222 15.8933 5.23948 15.8933 5.61623C15.8933 5.99298 16.2 6.31024 16.5933 6.31024C16.9667 6.31024 17.2733 5.99298 17.2733 5.61623ZM23.5933 9.5886C22.5867 9.5886 21.76 10.3884 21.76 11.4062V19.0602C21.76 20.078 22.5867 20.891 23.5933 20.891C24.62 20.891 25.6 20.0714 25.6 19.0602V11.4062C25.6 10.3884 24.6133 9.5886 23.5933 9.5886Z" fill="white"/>
</svg>
