<svg width="112" height="25" viewBox="0 0 112 25" fill="none" xmlns="http://www.w3.org/2000/svg">
<path d="M108.888 1.90391C108.888 1.13871 109.455 0.555076 110.172 0.555076C110.877 0.555076 111.444 1.13871 111.444 1.90391C111.444 2.68209 110.877 3.26572 110.172 3.26572C109.455 3.26572 108.888 2.68209 108.888 1.90391ZM110.172 3.52511C111.028 3.52511 111.759 2.83772 111.759 1.90391C111.759 0.983073 111.028 0.282715 110.172 0.282715C109.303 0.282715 108.573 0.983073 108.573 1.90391C108.573 2.83772 109.303 3.52511 110.172 3.52511ZM109.832 2.03361H110.147L110.625 2.83772H110.94L110.424 2.02064C110.688 1.98173 110.89 1.83907 110.89 1.50186C110.89 1.13871 110.676 0.983073 110.248 0.983073H109.555V2.83772H109.832V2.03361ZM109.832 1.78719V1.21653H110.21C110.399 1.21653 110.6 1.25543 110.6 1.48889C110.6 1.77422 110.399 1.78719 110.172 1.78719H109.832ZM64.1273 4.0439C71.3796 4.0439 72.4373 3.81044 72.4373 11.8256V11.8516C72.4373 19.8798 71.367 19.5685 64.1147 19.5685H55.8299L55.8425 4.0439H64.1273ZM66.721 14.5233V9.115H61.4706V14.5233H66.721ZM77.6751 19.5685H71.7448L78.7831 4.05687H84.6001L91.6384 19.5685H85.7081L84.8771 17.7787H78.5061L77.6751 19.5685ZM81.6916 9.59488L80.0296 13.2912H83.3536L81.6916 9.59488ZM41.7658 4.0439C37.913 4.10874 37.9382 6.70266 37.9382 8.90749C37.9382 11.1383 37.8375 13.8489 41.7658 13.9008V4.0439ZM41.7658 13.9008H49.4463V14.9643H38.53V19.5685H50.5291C54.4701 19.5036 54.3567 16.793 54.3567 14.5752C54.3567 12.3444 54.4575 9.64676 50.5291 9.58191H42.5213V8.53137H53.211V4.05687L41.7407 4.0439L41.7658 13.9008ZM5.60853 12.2926L12.6683 19.5685H17.7676V4.05687H12.3913L12.3787 11.3198L5.31768 4.05687H0.230957V19.5685H5.60853V12.2926ZM90.9333 11.7997C90.9333 19.8668 92.0161 19.6463 99.2811 19.6463C106.546 19.6463 107.604 19.8668 107.604 11.7997V11.7867C107.604 3.70669 106.546 3.94014 99.2811 3.94014C92.0161 3.94014 90.9333 3.70669 90.9333 11.7867V11.7997ZM96.6496 14.4974V9.08907H101.9V14.4974H96.6496ZM106.987 24.7045V19.4388H101.887V24.7045H106.987ZM24.9947 17.7787H31.3783L32.2093 19.5685H38.1271L31.0887 4.05687H25.2717L18.246 19.5685H24.1763L24.9947 17.7787ZM29.8422 13.2912H26.5308L28.1928 9.59488L29.8422 13.2912Z" fill="white"/>
</svg>
