<svg width="91" height="23" viewBox="0 0 91 23" fill="none" xmlns="http://www.w3.org/2000/svg">
<path fill-rule="evenodd" clip-rule="evenodd" d="M25.1269 8.53282C26.7413 8.53282 28.058 9.84949 28.058 11.4639C28.058 13.0782 26.7413 14.3954 25.1269 14.3954C24.867 14.3953 24.6081 14.3604 24.3574 14.2916L18.3805 20.269C20.3135 21.7594 22.6861 22.5671 25.1269 22.5656C31.2409 22.5656 36.2282 17.5787 36.2282 11.4639C36.2282 5.34993 31.2414 0.363069 25.1269 0.363069C24.7501 0.363069 24.3777 0.38237 24.0105 0.419521L14.1492 10.2803C14.3099 10.6427 14.4001 11.0431 14.4001 11.4639C14.4001 13.0782 13.0834 14.3954 11.469 14.3954C9.85467 14.3954 8.538 13.0782 8.538 11.4639C8.538 9.84998 9.85467 8.53282 11.469 8.53282C11.7532 8.53282 12.0277 8.57335 12.2878 8.64958L18.2507 2.68667C16.3115 1.1791 13.9248 0.361418 11.4686 0.363069C5.35463 0.363069 0.367279 5.34993 0.367279 11.4639C0.367279 17.5787 5.35414 22.5656 11.4686 22.5656C11.8695 22.5656 12.2651 22.5429 12.655 22.5014L21.5716 13.5853L22.4656 12.6908C22.2872 12.3064 22.1949 11.8876 22.1954 11.4639C22.1959 9.84998 23.5126 8.53282 25.1269 8.53282ZM58.6657 9.31443C58.6657 11.8489 57.8894 13.9438 56.3383 15.6107C54.5864 17.489 52.1465 18.4293 49.01 18.4293C45.869 18.4293 43.4243 17.489 41.6734 15.6107C40.1218 13.9438 39.346 11.8489 39.346 9.31443C39.346 6.78385 40.1218 4.68894 41.6734 3.02199C43.4243 1.14275 45.869 0.203369 49.01 0.203369C52.147 0.203369 54.5869 1.14275 56.3383 3.02199C57.8894 4.68894 58.6657 6.78385 58.6657 9.31443ZM52.354 9.31443C52.354 8.16276 52.011 7.22676 51.3297 6.51849C50.689 5.85171 49.917 5.51832 49.0095 5.51832C48.0908 5.51832 47.3107 5.85171 46.6704 6.51849C45.9882 7.22676 45.6457 8.16276 45.6457 9.31443C45.6457 10.47 45.9877 11.405 46.6704 12.1137C47.3102 12.781 48.0904 13.1134 49.0095 13.1134C49.917 13.1134 50.6885 12.781 51.3297 12.1137C52.011 11.4055 52.354 10.47 52.354 9.31443ZM76.2187 9.31443C76.2187 11.7953 75.4959 13.7995 74.0456 15.3299C72.4269 17.0307 70.1144 17.8837 67.1052 17.8837H59.6259V0.74905H67.1052C70.4005 0.74905 72.8288 1.69615 74.3886 3.59035C75.6088 5.07154 76.2187 6.97684 76.2187 9.31443ZM69.9069 9.31829C69.9069 8.13623 69.5788 7.22338 68.9241 6.58651C68.3297 6.01092 67.5269 5.72288 66.5214 5.72288H65.7272V12.9016H66.5214C67.3093 12.9016 67.9717 12.7308 68.5174 12.3897C69.4442 11.8069 69.9069 10.784 69.9069 9.31829ZM90.6317 12.5229C90.6317 14.3756 89.9644 15.8303 88.6357 16.898C87.3701 17.9174 85.7123 18.4293 83.6676 18.4293C81.2354 18.4293 78.9379 17.8152 76.7837 16.5882L78.4931 11.9772C80.1204 13.0946 81.5056 13.6557 82.6544 13.6557C83.7728 13.6557 84.331 13.4439 84.331 13.0232C84.331 12.6671 84.1462 12.3559 83.7771 12.0911C83.3144 11.7649 82.2713 11.2463 80.6439 10.538C78.5461 9.62128 77.4992 8.04504 77.4992 5.82131C77.4992 4.03712 78.1539 2.64325 79.4648 1.63536C80.7004 0.680538 82.32 0.203369 84.331 0.203369C86.3232 0.203369 88.2058 0.73361 89.9793 1.79071L88.5001 6.44998C87.2008 5.4691 85.9574 4.9765 84.7826 4.9765C84.041 4.9765 83.6676 5.18107 83.6676 5.58635C83.6676 5.79477 83.822 6.0032 84.1313 6.20777C84.4931 6.46155 85.295 6.88999 86.5378 7.49598C88.0437 8.23465 89.1017 8.96946 89.7048 9.69317C90.3224 10.4396 90.6317 11.3867 90.6317 12.5229ZM40.6159 19.8333V22.7075H41.5258V21.6426L41.4988 21.1727L42.497 22.7075H43.4065V19.8333H42.4618V20.8625L42.497 21.3281L41.4988 19.8333H40.6159ZM47.3179 19.8333V22.7075H49.7269V22.0243H48.2983V21.6079H49.4514V20.9247H48.2983V20.5431H49.6695V19.8333H47.3179ZM53.399 19.8333V20.6101H54.2332V22.7075H55.1996V20.6101H56.0517V19.8333H53.399ZM59.7817 19.8333L60.5266 22.7075H61.4588L61.7734 21.053L62.1193 22.7075H63.0553L63.7477 19.8333H62.8469L62.5275 21.5814L62.2129 19.8333H61.3382L61.0632 21.5814L60.7399 19.8333H59.7817ZM69.0163 19.7354C68.679 19.7475 68.3973 19.8305 68.171 19.9844C67.9447 20.1383 67.7754 20.3284 67.661 20.5566C67.5467 20.7848 67.4902 21.0289 67.4902 21.2904C67.4902 21.5519 67.5476 21.7946 67.6625 22.018C67.7783 22.2414 67.951 22.4271 68.1816 22.5748C68.4122 22.7224 68.7007 22.7962 69.0467 22.7962C69.3038 22.7962 69.5292 22.7538 69.7231 22.6679C69.9171 22.582 70.0782 22.4681 70.2065 22.3258C70.3353 22.185 70.4335 22.0191 70.4951 21.8385C70.5592 21.6547 70.5901 21.4656 70.5901 21.2702C70.5812 21.0786 70.5407 20.8899 70.4705 20.7115C70.4009 20.5297 70.298 20.3627 70.167 20.2188C70.0298 20.0707 69.8645 19.9515 69.6806 19.8681C69.4896 19.7798 69.2681 19.7354 69.0163 19.7354ZM69.0476 20.4895C69.1099 20.4895 69.174 20.5035 69.2387 20.53C69.3034 20.5566 69.3612 20.6 69.4109 20.6608C69.4611 20.7211 69.5021 20.7983 69.5354 20.8933C69.5673 20.9874 69.5846 21.1018 69.5846 21.2345C69.5846 21.5042 69.5393 21.7121 69.4491 21.8602C69.3588 22.0083 69.2247 22.0826 69.0476 22.0826C68.9687 22.0846 68.8906 22.0669 68.8202 22.0312C68.7498 21.9955 68.6893 21.9429 68.6443 21.8781C68.5435 21.7425 68.4938 21.5399 68.4938 21.2702C68.4938 21.0072 68.5463 20.8113 68.653 20.682C68.7591 20.5546 68.8908 20.4895 69.0476 20.4895ZM75.3724 20.5431H75.8916C75.9953 20.5431 76.0715 20.5696 76.1227 20.6232C76.1728 20.6758 76.1979 20.7341 76.1979 20.7983C76.1967 20.8635 76.1713 20.926 76.1265 20.9734C76.101 21.0004 76.0699 21.0214 76.0354 21.0351C76.0009 21.0488 75.9638 21.0547 75.9268 21.0526H75.3729V20.5431H75.3724ZM74.4272 19.8333V22.7075H75.3989V21.7357C75.5085 21.7357 75.6146 21.7329 75.7183 21.7271C75.8221 21.7213 75.9123 21.7357 75.989 21.7715C76.0541 21.7951 76.0985 21.8327 76.1198 21.8843C76.1424 21.936 76.1564 22.0001 76.1622 22.0773C76.168 22.1536 76.1709 22.2452 76.1709 22.3495C76.1709 22.4551 76.183 22.5738 76.2066 22.7065H77.2092V22.6134C77.1498 22.5994 77.1151 22.5661 77.1045 22.5164C77.0939 22.4667 77.0895 22.3938 77.0895 22.2988C77.0895 22.184 77.0886 22.0802 77.0876 21.9886C77.0857 21.8964 77.0717 21.8134 77.0452 21.7377C77.0186 21.6619 76.9747 21.5934 76.9144 21.5331C76.8541 21.4728 76.7644 21.4154 76.6457 21.3623C76.7315 21.3527 76.8126 21.3088 76.8879 21.2296C76.9631 21.1495 77.0205 21.0526 77.0601 20.9382C77.1006 20.8253 77.1166 20.7037 77.1093 20.5744C77.1012 20.4444 77.055 20.3196 76.9766 20.2155C76.8946 20.1045 76.7701 20.0128 76.6018 19.9405C76.4334 19.8681 76.209 19.8319 75.9273 19.8319H74.4272V19.8333ZM81.0453 19.8333V22.7075H82.0166V21.7719L82.2072 21.5814L82.8903 22.7075H84.0531L82.8903 20.9247L83.9334 19.8333H82.8064L82.0166 20.6984V19.8333H81.0453ZM89.397 20.6714H90.3065C90.2828 20.4857 90.2375 20.3332 90.1719 20.2155C90.1103 20.1026 90.022 20.0065 89.9147 19.9356C89.8 19.8639 89.6728 19.8143 89.5398 19.7894C89.3789 19.7576 89.2155 19.7396 89.0516 19.7359C88.6699 19.7417 88.3804 19.8189 88.1816 19.967C87.9838 20.1151 87.869 20.298 87.8357 20.5175C87.8063 20.7361 87.829 20.9093 87.9047 21.0386C87.98 21.1669 88.0885 21.2702 88.2289 21.3488C88.3693 21.4279 88.5295 21.4882 88.7104 21.5307L89.2513 21.6614C89.3343 21.6889 89.3917 21.7275 89.4235 21.7792C89.4391 21.8012 89.4497 21.8263 89.4548 21.8527C89.4599 21.8792 89.4592 21.9064 89.453 21.9326C89.4365 21.9873 89.4011 22.0344 89.3531 22.0653C89.3005 22.1039 89.2305 22.1208 89.1447 22.1179C89.0535 22.1179 88.9608 22.0962 88.8697 22.0537C88.7785 22.0103 88.7172 21.9283 88.6878 21.8076H87.7783C87.7783 21.9847 87.815 22.1367 87.8893 22.2616C87.9626 22.3881 88.0615 22.4899 88.186 22.568C88.3105 22.6462 88.4538 22.7036 88.6168 22.7412C88.779 22.7779 88.9469 22.7957 89.1181 22.7957C89.2831 22.7957 89.4443 22.7731 89.6016 22.7268C89.7579 22.6814 89.8964 22.6158 90.016 22.5299C90.1357 22.444 90.2307 22.3369 90.3026 22.2086C90.3731 22.0793 90.4054 21.9345 90.3996 21.7715C90.3945 21.6513 90.3627 21.5338 90.3065 21.4274C90.2514 21.3289 90.1751 21.2438 90.0831 21.1785C89.9769 21.1042 89.8612 21.0447 89.7391 21.0014C89.5924 20.9486 89.4425 20.905 89.2904 20.8707C89.2041 20.8515 89.1178 20.833 89.0313 20.8152C88.951 20.8012 88.8728 20.7769 88.7987 20.7428C88.7629 20.7274 88.7338 20.6997 88.7167 20.6647C88.7098 20.6498 88.7062 20.6335 88.7062 20.6171C88.7062 20.6007 88.7098 20.5845 88.7167 20.5696C88.7331 20.5335 88.76 20.5033 88.7939 20.4828C88.8397 20.4556 88.8913 20.4397 88.9444 20.4364C89.0495 20.4256 89.1557 20.4378 89.2556 20.4721C89.3415 20.5045 89.3888 20.5715 89.397 20.6714Z" fill="white"/>
</svg>
